<svg t="1745376372479" class="icon" viewBox="0 0 1024 1024" version="1.1" xmlns="http://www.w3.org/2000/svg" p-id="7943" width="40" height="40"><path d="M274.432 461.824c-105.472-2.048-96.768-94.72-96.768-94.72 0-95.744 96.768-94.72 96.768-94.72 94.72 8.704 93.696 94.72 93.696 94.72 1.024 96.768-93.696 94.72-93.696 94.72zM942.592 175.616v123.392c16.384 2.56 32.256 5.632 48.128 9.728v-133.12h-48.128z" p-id="7944" fill="#1296db"></path><path d="M474.112 892.928c-19.968-50.176-31.232-104.448-31.232-161.792 0-30.208 3.072-59.904 9.216-88.576l-83.968-84.48-190.464 193.024h-93.696V175.616h906.24c0-49.664-48.64-48.64-48.64-48.64h-857.6s-50.688 4.096-50.688 48.64v668.16s3.072 47.616 50.688 48.64h390.144z" p-id="7945" fill="#1296db"></path><path d="M986.112 806.912l-83.456-83.456c36.352-45.568 53.248-103.424 46.592-161.28-6.656-57.856-35.328-110.592-80.896-146.944-94.72-75.776-232.448-60.416-308.224 34.304-70.144 87.04-62.976 212.992 16.384 292.352s205.312 85.504 292.352 15.36l83.456 83.456c9.216 8.704 23.552 8.704 32.768 0 9.216-8.704 10.24-23.04 2.048-32.768l-1.024-1.024z m-425.472-220.16c-1.024-61.44 31.744-118.784 84.992-150.016 53.248-31.232 118.784-31.232 172.032 0 53.248 31.232 85.504 88.064 84.992 150.016-1.024 93.696-77.312 168.448-171.008 168.448s-169.472-74.752-171.008-168.448z m0 0" fill="#1296db" p-id="7946"></path></svg>